<svg xmlns="http://www.w3.org/2000/svg" aria-hidden="true" overflow="hidden" style="position:absolute;width:0;height:0"><defs><symbol id="icon-instagram" viewBox="0 0 24 24"><path d="M7 1c-1.657 0-3.158.673-4.243 1.757S1 5.343 1 7v10c0 1.657.673 3.158 1.757 4.243S5.343 23 7 23h10c1.657 0 3.158-.673 4.243-1.757S23 18.657 23 17V7c0-1.657-.673-3.158-1.757-4.243S18.657 1 17 1zm0 2h10c1.105 0 2.103.447 2.828 1.172S21 5.895 21 7v10c0 1.105-.447 2.103-1.172 2.828S18.105 21 17 21H7c-1.105 0-2.103-.447-2.828-1.172S3 18.105 3 17V7c0-1.105.447-2.103 1.172-2.828S5.895 3 7 3zm9.989 8.223a5.054 5.054 0 0 0-1.194-2.567 4.962 4.962 0 0 0-3.009-1.644 4.904 4.904 0 0 0-1.477-.002c-1.366.202-2.521.941-3.282 1.967s-1.133 2.347-.93 3.712.941 2.521 1.967 3.282 2.347 1.133 3.712.93 2.521-.941 3.282-1.967 1.133-2.347.93-3.712zm-1.978.294c.122.82-.1 1.609-.558 2.227s-1.15 1.059-1.969 1.18-1.609-.1-2.227-.558-1.059-1.15-1.18-1.969.1-1.609.558-2.227 1.15-1.059 1.969-1.18a2.976 2.976 0 0 1 2.688.984c.375.428.63.963.72 1.543zM17.5 7.5a1 1 0 1 0 0-2 1 1 0 0 0 0 2z"/></symbol><symbol id="icon-facebook" viewBox="0 0 24 24"><path d="M21.984 12q0-2.063-.773-3.867t-2.156-3.188-3.188-2.156T12 2.016t-3.867.773-3.188 2.156-2.156 3.188T2.016 12q0 1.828.586 3.445t1.688 2.93 2.555 2.203 3.141 1.219V15H8.017v-3h1.969V9.516q0-.984.492-1.781t1.266-1.266T13.502 6h2.484v3h-1.969q-.422 0-.727.305t-.305.68v2.016h3v3h-3v6.938q1.922-.188 3.563-1.031t2.859-2.18 1.898-3.047.68-3.68z"/></symbol><symbol id="icon-arrow_forward" viewBox="0 0 24 24"><path d="M12 3.984 20.016 12 12 20.016l-1.406-1.406 5.578-5.625H3.984v-1.969h12.188l-5.578-5.625z"/></symbol><symbol id="icon-arrow_back" viewBox="0 0 24 24"><path d="M20.016 11.016v1.969H7.828l5.578 5.625L12 20.016 3.984 12 12 3.984l1.406 1.406-5.578 5.625h12.188z"/></symbol><symbol id="icon-close" viewBox="0 0 20 20"><path d="M10 8.586 2.929 1.515 1.515 2.929 8.586 10l-7.071 7.071 1.414 1.414L10 11.414l7.071 7.071 1.414-1.414L11.414 10l7.071-7.071-1.414-1.414L10 8.586z"/></symbol><symbol id="icon-lines" viewBox="0 0 32 32"><path d="M7 10h18a1 1 0 0 0 0-2H7a1 1 0 0 0 0 2zm18 2H7a1 1 0 0 0 0 2h18a1 1 0 0 0 0-2zm0 4H7a1 1 0 0 0 0 2h18a1 1 0 0 0 0-2zm0 4H7a1 1 0 0 0 0 2h18a1 1 0 0 0 0-2z"/></symbol></defs></svg>